<?xml version="1.0" encoding="UTF-8"?><svg id="Layer_1" xmlns="http://www.w3.org/2000/svg" xmlns:xlink="http://www.w3.org/1999/xlink" viewBox="0 0 135 25"><defs><clipPath id="clippath"><rect width="135" height="25" fill="none"/></clipPath><clipPath id="clippath-1"><rect width="135" height="25" fill="none"/></clipPath></defs><g clip-path="url(#clippath)"><rect x="-7.1" y="-55" width="149.3" height="135" fill="#fff"/></g><g clip-path="url(#clippath-1)"><g opacity=".7"><path d="m91.4,12.5c0,13.2-10.5,23.9-23.9,23.9s-23.9-10.8-23.9-24,10.4-23.9,24-23.8c13.3.1,23.7,10.7,23.8,23.9Zm-23.9-22.9c-12.5-.1-23,10-23,22.9s10.5,22.9,22.9,22.9,23-10,23-22.9c.1-12.9-10.4-23-22.9-22.9Z" fill="#ededed"/><path d="m84.4,17.6c-1.5.4-2.9.9-4.3,1.5-3,1.3-5.6,3.2-8.3,5-.9.6-1.8,1.2-2.8,1.7s-1.9.5-2.9,0-2-1.1-2.9-1.8c-3-2.1-6.1-4.2-9.6-5.5-.8-.3-1.6-.6-2.5-.7.3.2.6.4.9.6,3.2,1.9,6.2,4,8.7,6.7,1.7,1.8,3,3.7,3.5,6.2.1.4.1.9.2,1.3.1.5-.2.7-.7.6-2.6-.5-5.1-1.4-7.4-2.9-5.2-3.3-8.3-8-9.4-14.1-.1-.8-.2-1.6-.3-2.3s0-.7.7-.7c4.3.3,8.4,1.1,12,3.7.3.2.4.2.4-.2,0-4.5,1.5-8.6,3.8-12.4,1-1.7,2.2-3.4,3.6-4.9.3-.4.5-.4.8,0,2.5,3,4.6,6.1,5.9,9.8.9,2.4,1.4,4.9,1.5,7.5,0,.2-.1.4.1.5.1.1.2-.1.3-.1,2.2-1.6,4.6-2.5,7.2-3.1,1.6-.3,3.2-.5,4.8-.6.5,0,.5.2.5.6-.2,2.4-.7,4.8-1.7,7.1-2.2,5.1-5.9,8.7-11,11-1.3.6-2.7,1-4.2,1.3-.5.1-.6,0-.6-.5.1-2.8,1.5-5,3.2-6.9,2.7-3.1,6.1-5.3,9.5-7.4.4-.6.7-.7,1-1,0,.1-.1.1,0,0Zm-13.6,2.6c.1-.5-.1-1.1-.3-1.6-.9-2.2-3.4-2.7-5-1.1-1.4,1.4-1.5,4-.2,5.4,1.2,1.3,3,1.5,4.2.4.9-.8,1.4-1.8,1.3-3.1Z" fill="#ededed"/><path d="m68.6-7.4c-6.6.1-11.7,2.1-15.7,6.5-3,3.3-4.8,7.1-5.2,11.6,0,.2-.1.4-.1.6,0,.3-.1.6-.5.5-.4,0-.5-.3-.4-.6.3-3.9,1.6-7.5,3.9-10.7,3-4.2,7-6.9,12-8.1,5.4-1.3,10.5-.6,15.3,2.2,6,3.5,9.4,8.8,10.3,15.6,0,.3,0,.6.1.9,0,.3.1.5-.3.6-.4,0-.5-.2-.5-.5-.2-1.9-.5-3.9-1.2-5.7-2.1-5.3-5.7-9-10.9-11.3-2.4-1-5-1.5-6.8-1.6Z" fill="#ededed"/></g></g><rect width="135" height="25" fill="none"/><g isolation="isolate"><path d="m40.7,5.79c-1.54.08-2.43,1.13-2.51,2.84l-.41,5.75c-.08,1.62.65,2.59,2.11,2.51,1.54-.08,2.43-1.13,2.51-2.84l.08-1.46-1.46.08-.16,1.62c-.08.73-.41.97-.89,1.05-.49,0-.81-.24-.73-.89l.41-5.99c.08-.73.41-1.05.89-1.05s.81.24.73.97l-.08,1.22,1.46-.08.08-1.13c.24-1.78-.57-2.67-2.03-2.59" fill="#831719"/><polyline points="48.07 5.47 43.78 5.79 42.97 16.48 47.34 16.16 47.42 14.62 44.67 14.86 44.91 11.54 47.1 11.38 47.18 9.84 45.07 10 45.23 7.17 47.99 7.01 48.07 5.47" fill="#831719"/><path d="m50.01,10.16l.24-3.32.73-.08c.49,0,.73.16.73.97l-.08,1.3c-.08.73-.32,1.05-.81,1.05l-.81.08m1.05-4.94l-2.27.16-.81,10.69,1.54-.08.32-4.37.73-.08c1.54-.08,2.43-1.13,2.51-2.84l.08-1.05c.24-1.62-.49-2.51-2.11-2.43" fill="#831719"/><path d="m58.36,4.58c-1.54.08-2.43,1.13-2.51,2.84-.08,1.22.32,2.11,1.54,3.24.97.89,1.3,1.46,1.22,2.27s-.41,1.13-.89,1.13-.81-.24-.73-.97l.08-.73-1.46.08-.08.65c-.16,1.7.57,2.67,2.11,2.51,1.54-.08,2.43-1.13,2.59-2.92.08-1.3-.24-2.19-1.54-3.32-.97-.89-1.3-1.46-1.22-2.19s.41-1.05.89-1.05.81.24.73.97v.57l1.46-.08v-.41c.08-1.78-.65-2.67-2.19-2.59" fill="#831719"/><path d="m63.05,4.41l-1.54.08-.81,10.69,1.54-.08.81-10.69m.16-2.59l-1.54.08-.16,1.78,1.54-.08.16-1.78" fill="#831719"/><path d="m66.29,4.01c-1.54.08-2.43,1.13-2.51,2.84l-.41,5.67c-.16,1.7.65,2.67,2.19,2.51,1.54-.08,2.43-1.13,2.51-2.84l.24-3.48-2.27.16-.08,1.54.81-.08-.16,2.11c-.08.73-.41,1.05-.89,1.13-.49,0-.81-.24-.73-.97l.41-5.91c.08-.73.41-1.05.89-1.13.49,0,.81.24.73.97l-.08,1.05,1.46-.08.08-.89c.16-1.78-.57-2.67-2.19-2.59" fill="#831719"/><path d="m71.15,13.16c-.49,0-.81-.24-.73-.97l.41-5.83c.08-.73.41-1.05.89-1.13.49,0,.81.24.73.97l-.41,5.83c-.08.73-.41,1.05-.89,1.13m.73-9.56c-1.54.08-2.43,1.13-2.59,2.84l-.41,5.67c-.16,1.7.65,2.67,2.19,2.51,1.54-.08,2.43-1.13,2.59-2.84l.41-5.67c.08-1.62-.65-2.59-2.19-2.51" fill="#831719"/><path d="m76.42,8.06l.24-3.08.73-.08c.57,0,.81.24.73,1.05l-.08.81c-.08.89-.41,1.13-1.05,1.22l-.57.08m1.05-4.62l-2.35.16-.73,10.69,1.54-.08.32-4.62h.57c.73-.08.97.24.89,1.22l-.16,1.94c-.08.89,0,1.05.08,1.3l1.62-.08c-.16-.41-.08-.81-.08-1.3l.16-1.86c.08-1.22-.08-2.03-.89-2.19h0c.73-.32,1.13-1.05,1.22-2.19l.08-.65c0-1.7-.65-2.51-2.27-2.35" fill="#831719"/><polyline points="85.17 2.87 80.31 3.2 80.23 4.74 81.85 4.66 81.2 13.81 82.82 13.73 83.47 4.49 85.09 4.41 85.17 2.87" fill="#831719"/><path d="m86.14,9.92l1.13-5.43.32,5.35-1.46.08m2.35-7.29l-2.11.16-2.43,10.85,1.46-.08.41-2.11,1.78-.16.16,2.11,1.54-.08-.81-10.69" fill="#831719"/><polyline points="97.32 1.98 95.05 2.15 93.43 10 92.94 2.31 90.76 2.47 89.95 13.16 91.32 13.08 91.97 4.98 92.54 13 93.83 12.92 95.62 4.74 95.05 12.84 96.51 12.76 97.32 1.98" fill="#831719"/></g><path d="m49.29,19.31c.9,0,1.63.72,1.63,1.61s-.73,1.61-1.63,1.61-1.63-.72-1.63-1.61h0v-2.63l.85-.92v2.14c.23-.12.5-.2.78-.2h0Zm-1.49-.92l.57-.62v2.01c.25-.19.57-.3.91-.3.82,0,1.48.64,1.48,1.43s-.66,1.43-1.48,1.43-1.45-.61-1.48-1.38v-2.58h0Z" fill="#8a181a" fill-rule="evenodd"/><path d="m47.79,18.39l.57-.62v2.01c.25-.19.57-.3.91-.3.82,0,1.48.64,1.48,1.43s-.66,1.43-1.48,1.43-1.45-.61-1.48-1.38v-2.58h0Z" fill="#fff" fill-rule="evenodd"/><path d="m49.28,19.95c.54,0,.97.43.97.97s-.44.97-.97.97-.97-.43-.97-.97.44-.97.97-.97h0Zm.11.1c.27.13.45.47.45.87s-.19.73-.45.87c.43-.06.76-.42.76-.87s-.33-.81-.76-.87h0Zm-.16,1.74v-1.74c-.46.03-.82.41-.82.87s.36.84.82.87h0Z" fill="#8a181a" fill-rule="evenodd"/><path d="m64.96,20.12l-1,1.84h.46l.21-.41h1.03l.21.41h.49l-1.02-1.84h-.39Zm-.15,1.05l.32-.6.32.6h-.63Z" fill="#841618"/><path d="m67.92,20.81h-.97v-.3h1.02v.27l.4-.11v-.1c0-.12-.02-.26-.11-.34-.09-.09-.24-.1-.36-.1h-.89c-.12,0-.28.02-.37.11-.09.09-.1.25-.1.37v.15c0,.12.01.28.1.37.09.09.25.11.37.11h.97v.34h-1.08v-.29l-.42.1v.11c0,.12.02.28.11.37.09.09.25.11.37.11h.98c.12,0,.28-.02.36-.11.09-.09.1-.25.1-.37v-.19c0-.12-.02-.28-.11-.37-.09-.09-.24-.11-.36-.11Z" fill="#841618"/><polygon points="62.41 21.2 63.22 21.2 63.22 20.81 62.41 20.81 62.41 20.51 63.74 20.51 63.74 20.12 61.97 20.12 61.97 21.96 63.75 21.96 63.75 21.56 62.41 21.56 62.41 21.2" fill="#841618"/><polygon points="68.64 20.51 69.41 20.51 69.41 21.96 69.85 21.96 69.85 20.51 70.62 20.51 70.62 20.12 68.64 20.12 68.64 20.51" fill="#841618"/><path d="m56.86,20.12l-1,1.84h.46l.21-.41h1.03l.21.41h.49l-1.02-1.84h-.39Zm-.18,1.05l.32-.6.32.6h-.63Z" fill="#841618"/><polygon points="54.31 21.2 55.12 21.2 55.12 20.81 54.31 20.81 54.31 20.51 55.64 20.51 55.64 20.12 53.87 20.12 53.87 21.96 55.66 21.96 55.66 21.56 54.31 21.56 54.31 21.2" fill="#841618"/><path d="m59.93,21.3c.11,0,.24-.02.33-.1.08-.08.11-.19.11-.31v-.37c0-.11-.02-.23-.11-.31-.09-.08-.21-.1-.33-.1h-1.43v1.84h.44v-.65h.38l.68.65h.67l-.76-.65h.02Zm-.06-.47s0,.06-.01.08c-.01.01-.07.01-.09.01h-.88v-.42h.88s.07,0,.08.02c.01.01.01.06.01.08v.24Z" fill="#841618"/><path d="m53.14,20.11v1.4l-.82-1.4h-.65s0,1.37,0,1.84h.38s0-1.37,0-1.37l.82,1.37h.67s0-1.84,0-1.84h-.4Z" fill="#841618"/><path d="m73.32,20.88h-1.15v-.37h1.21v.19l.37-.08v-.04c0-.14-.03-.24-.1-.3-.07-.06-.19-.08-.37-.08h-1.05c-.18,0-.3.03-.37.09-.06.06-.1.17-.1.33v.2c0,.16.03.27.1.33.06.06.19.09.37.09h1.14v.4h-1.3v-.21l-.38.07v.05c0,.16.03.27.1.33.06.06.19.09.37.09h1.15c.18,0,.3-.03.36-.09.06-.06.1-.17.1-.33v-.24c0-.16-.03-.27-.09-.33-.06-.06-.18-.09-.36-.09Z" fill="#841618"/><rect x="74.32" y="20.19" width=".43" height="1.77" fill="#841618"/><path d="m77.02,20.19h-1.28c-.18,0-.3.03-.36.09-.06.06-.09.17-.09.33v.93c0,.16.03.27.09.33.06.06.18.09.36.09h1.28c.18,0,.3-.03.36-.09.06-.06.09-.17.09-.33v-.61h-1.12v.31h.7v.38h-1.34v-1.1h1.34v.19l.42-.07v-.05c0-.15-.03-.25-.1-.31-.06-.06-.18-.09-.36-.09Z" fill="#841618"/><path d="m79.79,20.19h-1.37c-.18,0-.3.03-.36.09-.06.06-.09.17-.09.33v.93c0,.16.03.27.09.33.06.06.18.09.36.09h1.37c.18,0,.3-.03.36-.09.06-.06.09-.17.09-.33v-.93c0-.16-.03-.27-.09-.33-.06-.06-.18-.09-.37-.09Zm.03,1.43h-1.42v-1.1h1.42v1.1Z" fill="#841618"/><path d="m82.37,21.29c.15,0,.25-.03.32-.08.07-.05.1-.14.1-.26v-.42c0-.12-.03-.21-.1-.26-.07-.05-.17-.08-.32-.08h-1.59v1.77h.42v-.67h.41l.74.67h.62l-.84-.67h.24Zm-1.17-.3v-.49h.98c.07,0,.13.01.15.03.03.02.04.06.04.11v.2c0,.05-.01.09-.04.11-.03.02-.08.03-.15.03h-.98Z" fill="#841618"/><polygon points="85.04 20.19 82.91 20.19 82.91 20.51 83.76 20.51 83.76 21.96 84.19 21.96 84.19 20.51 85.04 20.51 85.04 20.19" fill="#841618"/><path d="m86.28,20.19h-.41l-1.05,1.77h.43l.22-.39h1.17l.22.39h.48l-1.06-1.77Zm-.63,1.06l.4-.74.41.74h-.81Z" fill="#841618"/><path d="m74.69,19.51h-.26c-.06,0-.09,0-.1.02-.01.01-.02.04-.02.09v.23s0,.07.02.08c.01.01.03.02.05.02h.26c.06,0,.09,0,.1-.02.01-.01.02-.04.02-.09v-.23s0-.07-.02-.08c-.01-.01-.03-.02-.05-.02Z" fill="#841618"/></svg>