<?xml version="1.0" encoding="utf-8"?>
<!-- Generator: Adobe Illustrator 27.3.1, SVG Export Plug-In . SVG Version: 6.00 Build 0)  -->
<svg version="1.1" id="Layer_1" xmlns="http://www.w3.org/2000/svg" xmlns:xlink="http://www.w3.org/1999/xlink" x="0px" y="0px"
	 viewBox="0 0 512 512" style="enable-background:new 0 0 512 512;" xml:space="preserve">
<style type="text/css">
	.st0{fill:#FFFFFF;}
	.st1{fill:#EDEDED;}
	.st2{fill-rule:evenodd;clip-rule:evenodd;fill:#89191B;}
	.st3{fill-rule:evenodd;clip-rule:evenodd;fill:#FFFFFF;}
	.st4{fill:#831719;}
	.st5{enable-background:new    ;}
</style>
<rect class="st0" width="512" height="512"/>
<g>
	<path class="st1" d="M451.4,256.2C451,364,365,451.6,256,451.6c-110.2,0-195.7-88.7-195.4-196.2C61,148.8,146.1,60,256.8,60.4
		C365.4,60.8,451,148.1,451.4,256.2z M256.3,68.3C154.1,67.4,68.2,150.3,68.2,256c0,105.5,85.6,187.6,187.2,187.8
		c102.6,0.3,188.2-82.1,188.4-187.6C443.9,150.6,358.2,67.8,256.3,68.3z"/>
	<path class="st1" d="M394,297.9c-12.2,3.1-23.7,7.5-35,12.5c-24.3,11-46.2,25.9-68,40.9c-7.3,5-14.7,9.9-22.8,13.7
		c-8,3.7-15.8,4.1-23.8-0.1c-8.3-4.3-16.1-9.4-23.8-14.7c-24.9-17.1-49.9-34-78.5-44.7c-6.6-2.5-13.2-4.8-20.4-6.1
		c2.6,1.6,5.2,3.1,7.7,4.7c25.9,15.7,50.8,32.7,71.5,55c13.5,14.5,24.6,30.6,28.4,50.6c0.7,3.6,0.9,7.3,1.3,10.9
		c0.5,4.2-1.3,5.4-5.4,4.6c-21.6-4.1-41.9-11.7-60.4-23.7c-42.2-27.3-68-65.8-77.2-115.3c-1.2-6.3-1.8-12.7-2.3-19.1
		c-0.5-5.5,0.2-6.1,5.9-5.8c35,2.2,68.7,9.1,97.9,30c2.6,1.9,3.6,1.6,3.7-1.8c0.2-37,12.4-70.2,31.2-101.5
		c8.5-14.2,18.4-27.5,29.1-40.2c2.4-2.9,4.2-3.3,6.9-0.2c20.3,24.2,37.5,50.3,48.7,80.1c7.5,19.8,11.4,40.3,12.1,61.5
		c0,1.3-0.6,3,0.8,3.8c1.1,0.7,2-0.5,2.8-1.1c17.7-13.1,37.8-20.7,59.1-25.3c12.9-2.8,26-4.3,39.1-5.1c3.8-0.2,4,1.8,3.8,4.6
		c-1.6,20-5.7,39.4-13.8,57.8c-18.3,41.7-48.6,71.6-90.2,89.9c-10.9,4.8-22.4,8.2-34.2,10.4c-4.1,0.7-4.9-0.2-4.7-4.4
		c1.1-22.5,11.9-40.5,26.1-56.9c22.1-25.3,49.6-43.5,78-60.7c2.1-1.3,4.2-2.6,6.2-3.9C394,298.7,393.9,298.4,394,297.9z
		 M283.2,319.1c0.6-4-0.8-8.7-2.6-13.2c-7-17.7-27.5-22.3-40.8-9.1c-11.4,11.3-12.2,32.5-1.5,44.5c9.7,10.9,24.2,12.4,34.7,3.1
		C280,338.1,283.4,329.8,283.2,319.1z"/>
	<path class="st1" d="M265.1,93.3c-54.3,0.4-95.7,17.2-128.7,52.7c-24.8,26.6-39,58.3-42.6,94.6c-0.2,1.7-0.6,3.3-0.6,5
		c0,2.8-0.5,4.6-4.2,4.3c-3.6-0.4-3.7-2.5-3.5-5.1c2.7-32.2,13-61.6,32-87.8c24.8-34,57.6-56.6,98.5-66.2c43.9-10.3,86-4.3,125,18.5
		c48.9,28.6,76.6,71.9,84.4,127.9c0.4,2.6,0.4,5.2,0.7,7.8c0.3,2.3,0.4,4.3-2.8,4.6c-3,0.2-3.9-1.3-4.2-4.1
		c-1.3-15.9-4.3-31.5-10.2-46.5c-16.9-43-46.6-73.9-88.9-92.6C300.7,97.8,280.1,93.8,265.1,93.3z"/>
</g>
<g>
	<g>
		<path class="st2" d="M108.8,417c7.3,0,13.2,5.8,13.2,13c0,7.2-5.9,13-13.2,13c-7.3,0-13.2-5.8-13.2-13l0,0v-21.3l6.9-7.4v17.3
			C104.4,417.6,106.5,417,108.8,417L108.8,417z M96.7,409.6l4.6-5v16.2c2-1.5,4.6-2.5,7.4-2.5c6.6,0,12,5.2,12,11.6
			c0,6.4-5.4,11.6-12,11.6c-6.5,0-11.7-4.9-12-11.1L96.7,409.6L96.7,409.6z"/>
	</g>
	<g>
		<path class="st3" d="M96.7,409.6l4.6-5v16.2c2-1.5,4.6-2.5,7.4-2.5c6.6,0,12,5.2,12,11.6s-5.4,11.6-12,11.6
			c-6.5,0-11.7-4.9-12-11.1L96.7,409.6L96.7,409.6z"/>
	</g>
	<g>
		<path class="st2" d="M108.8,422.2c4.3,0,7.9,3.5,7.9,7.8c0,4.3-3.5,7.8-7.9,7.8c-4.3,0-7.9-3.5-7.9-7.8
			C100.9,425.7,104.4,422.2,108.8,422.2L108.8,422.2z M109.7,423c2.1,1.1,3.7,3.8,3.7,7c0,3.2-1.5,5.9-3.6,7c3.5-0.5,6.1-3.4,6.1-7
			C115.8,426.4,113.2,423.4,109.7,423L109.7,423z M108.3,437v-14.1c-3.7,0.2-6.7,3.3-6.7,7C101.7,433.7,104.6,436.8,108.3,437
			L108.3,437z"/>
	</g>
	<g>
		<path class="st4" d="M235.5,423.6l-8.1,14.8h3.7l1.7-3.3h8.4l1.7,3.3h4l-8.2-14.8H235.5z M234.3,432l2.5-4.8l2.6,4.8H234.3z"/>
		<path class="st4" d="M259.4,429.2h-7.9v-2.4h8.3v2.2l3.2-0.9v-0.8c0-1-0.2-2.1-0.9-2.8c-0.7-0.7-2-0.8-2.9-0.8H252
			c-1,0-2.2,0.1-3,0.9c-0.7,0.7-0.8,2-0.8,3v1.2c0,1,0.1,2.2,0.8,3c0.7,0.7,2,0.9,3,0.9h7.8v2.7h-8.8v-2.3l-3.4,0.8v0.9
			c0,1,0.1,2.3,0.9,3c0.7,0.7,2,0.9,3,0.9h7.9c1,0,2.2-0.1,2.9-0.9c0.7-0.7,0.8-2,0.8-3V433c0-1-0.1-2.3-0.9-3
			C261.6,429.3,260.4,429.2,259.4,429.2z"/>
		<polygon class="st4" points="214.9,432.2 221.4,432.2 221.4,429.1 214.9,429.1 214.9,426.7 225.6,426.7 225.6,423.6 211.3,423.6 
			211.3,438.4 225.7,438.4 225.7,435.2 214.9,435.2 		"/>
		<polygon class="st4" points="265.2,426.7 271.4,426.7 271.4,438.4 275,438.4 275,426.7 281.2,426.7 281.2,423.6 265.2,423.6 		"/>
		<path class="st4" d="M170,423.6l-8.1,14.8h3.7l1.7-3.3h8.4l1.7,3.3h4l-8.2-14.8H170z M168.6,432l2.5-4.8l2.6,4.8H168.6z"/>
		<polygon class="st4" points="149.4,432.2 156,432.2 156,429.1 149.4,429.1 149.4,426.7 160.2,426.7 160.2,423.6 145.8,423.6 
			145.8,438.4 160.3,438.4 160.3,435.2 149.4,435.2 		"/>
		<path class="st4" d="M194.8,433.1c0.9,0,1.9-0.2,2.6-0.8c0.7-0.6,0.9-1.6,0.9-2.5v-3c0-0.9-0.2-1.8-0.9-2.5
			c-0.7-0.6-1.7-0.8-2.6-0.8h-11.6v14.8h3.6v-5.3h3.1l5.5,5.3h5.4l-6.2-5.3H194.8z M194.3,429.3c0,0.1,0,0.5-0.1,0.6
			c-0.1,0.1-0.6,0.1-0.7,0.1h-7.1v-3.4h7.1c0.1,0,0.6,0,0.7,0.1c0.1,0.1,0.1,0.5,0.1,0.6V429.3z"/>
		<path class="st4" d="M139.9,423.5v11.3l-6.7-11.3l-5.3,0c0,0,0,11-0.1,14.8l3.1,0l0.1-11.1l6.6,11.1l5.4,0l0-14.9L139.9,423.5z"/>
		<path class="st4" d="M303.1,429.7h-9.3v-3h9.8v1.5l3-0.6v-0.3c0-1.2-0.3-2-0.8-2.4c-0.5-0.5-1.5-0.7-3-0.7h-8.5
			c-1.5,0-2.4,0.2-3,0.7c-0.5,0.5-0.8,1.4-0.8,2.6v1.6c0,1.3,0.3,2.2,0.8,2.7c0.5,0.5,1.5,0.7,3,0.7h9.2v3.3h-10.5V434l-3.1,0.6v0.4
			c0,1.3,0.3,2.2,0.8,2.7c0.5,0.5,1.5,0.7,3,0.7h9.3c1.4,0,2.4-0.2,2.9-0.7c0.5-0.5,0.8-1.4,0.8-2.7v-2c0-1.3-0.3-2.2-0.8-2.7
			C305.5,429.9,304.5,429.7,303.1,429.7z"/>
		<rect x="311.1" y="424.1" class="st4" width="3.5" height="14.3"/>
		<path class="st4" d="M332.9,424.1h-10.3c-1.4,0-2.4,0.2-2.9,0.7c-0.5,0.5-0.8,1.4-0.8,2.7v7.5c0,1.3,0.3,2.2,0.8,2.7
			c0.5,0.5,1.5,0.7,2.9,0.7h10.3c1.4,0,2.4-0.2,2.9-0.7c0.5-0.5,0.8-1.4,0.8-2.7v-4.9h-9.1v2.5h5.7v3h-10.9v-8.9h10.9v1.5l3.4-0.6
			v-0.4c0-1.2-0.3-2-0.8-2.5C335.3,424.4,334.4,424.1,332.9,424.1z"/>
		<path class="st4" d="M355.3,424.1h-11c-1.5,0-2.4,0.2-2.9,0.7c-0.5,0.5-0.8,1.4-0.8,2.7v7.5c0,1.3,0.3,2.2,0.8,2.7
			c0.5,0.5,1.5,0.7,2.9,0.7h11c1.4,0,2.4-0.2,2.9-0.7c0.5-0.5,0.8-1.4,0.8-2.7v-7.5c0-1.3-0.3-2.2-0.7-2.7
			C357.8,424.4,356.8,424.1,355.3,424.1z M355.5,435.7H344v-8.9h11.5V435.7z"/>
		<path class="st4" d="M376.2,433c1.2,0,2-0.2,2.6-0.6c0.5-0.4,0.8-1.1,0.8-2.1v-3.4c0-1-0.3-1.7-0.8-2.1c-0.5-0.4-1.4-0.7-2.6-0.7
			h-12.9v14.3h3.4V433h3.3l6,5.4h5l-6.8-5.4H376.2z M366.8,430.5v-4h7.9c0.6,0,1,0.1,1.2,0.3c0.2,0.2,0.3,0.5,0.3,0.9v1.6
			c0,0.4-0.1,0.7-0.3,0.9c-0.2,0.2-0.6,0.3-1.2,0.3H366.8z"/>
		<polygon class="st4" points="397.8,424.1 380.5,424.1 380.5,426.7 387.4,426.7 387.4,438.4 390.9,438.4 390.9,426.7 397.8,426.7 
					"/>
		<path class="st4" d="M407.8,424.1h-3.3l-8.5,14.3h3.5l1.8-3.1h9.4l1.8,3.1h3.9L407.8,424.1z M402.7,432.7l3.2-5.9l3.3,5.9H402.7z"
			/>
		<path class="st4" d="M314.1,418.7h-0.4H312c-0.5,0-0.7,0.1-0.8,0.2c-0.1,0.1-0.1,0.3-0.1,0.7v1.9c0,0.3,0,0.6,0.1,0.7
			c0.1,0.1,0.2,0.2,0.4,0.2h2.1c0.5,0,0.7-0.1,0.8-0.2c0.1-0.1,0.1-0.3,0.1-0.7v-1.9c0-0.3,0-0.6-0.1-0.7
			C314.4,418.7,314.3,418.7,314.1,418.7z"/>
	</g>
</g>
<g>
	<g>
		<g class="st5">
			<g>
				<path class="st4" d="M192,106.3c-18.8,2.6-28.8,16.3-28.9,37l-0.1,72.1c0,20.7,9.9,31.6,28.7,29c18.8-2.6,28.8-16.3,28.9-37
					l0-18l-18.5,2.6l0,19.6c0,8.8-3.9,12.8-9.8,13.7c-5.9,0.8-9.8-2.1-9.8-10.9l0.1-75c0-8.8,3.9-13,9.8-13.9
					c5.9-0.8,9.8,2.3,9.7,11.1l0,15.5l18.5-2.6l0-14.2C220.8,114.5,210.9,103.6,192,106.3"/>
				<polyline class="st4" points="283.9,95.3 230.6,102.8 230.4,237.1 283.7,229.6 283.7,210.4 250,215.1 250,173.9 276.9,170.1 
					276.9,150.9 250.1,154.7 250.1,119.2 283.9,114.5 283.9,95.3 				"/>
				<path class="st4" d="M312.1,151.7l0.1-41.2l9.2-1.3c6.2-0.9,9.6,1.7,9.6,11.3l0,15.9c0,9.6-3.4,13.1-9.6,14L312.1,151.7
					 M321.5,90l-28.8,4l-0.2,134.3l19.6-2.7l0.1-54.7l9.2-1.3c19.6-2.7,29.2-15.8,29.2-37.3l0-13.2C350.6,97.6,341,87.3,321.5,90"/>
			</g>
		</g>
	</g>
	<g>
		<g class="st5">
			<g>
				<path class="st4" d="M102.6,277.5c-12.9,1.8-19.8,11.1-19.8,25.4c0,10.4,3.7,17.4,14.8,26.4c8.7,7,11.5,11.2,11.5,18.8
					c0,6.8-2.8,9.5-7,10.1c-4.2,0.6-6.9-1.4-6.8-7.9l0-6.2l-12.5,1.8l0,5.2c0,14.6,6.5,22,19.5,20.1c13-1.8,20-11.1,20-25.9
					c0-11.3-3.6-18.2-14.6-27.2c-8.7-7-11.7-11.2-11.6-17.8c0-6.2,2.5-9.1,6.8-9.7c4.2-0.6,6.6,1.5,6.6,8l0,4.7l12.5-1.8l0-3.8
					C121.8,283.1,115.4,275.7,102.6,277.5"/>
				<path class="st4" d="M141.8,273.3l-13.2,1.9l-0.2,91l13.2-1.9L141.8,273.3 M141.6,251.3l-12.8,1.8l0,15.1l12.8-1.8L141.6,251.3"
					/>
				<path class="st4" d="M169.3,268.1c-13,1.8-19.8,11.1-19.8,25.7l-0.1,47.8c0,14.6,6.7,21.9,19.7,20.1c13-1.8,19.8-11.1,19.8-25.7
					l0.1-29.8l-19.1,2.7l0,13l6.6-0.9l0,17.8c0,6.5-2.7,9.2-6.9,9.8c-4.2,0.6-6.9-1.4-6.8-7.9l0.1-49.8c0-6.5,2.7-9.3,6.9-9.9
					c4.2-0.6,6.9,1.5,6.8,8l0,8.7l12.5-1.8l0-7.8C189,273.7,182.3,266.3,169.3,268.1"/>
				<path class="st4" d="M215.5,342.2c-4.2,0.6-6.9-1.5-6.8-8l0.1-49.6c0-6.5,2.7-9.3,6.9-9.9c4.2-0.6,6.9,1.5,6.8,8l-0.1,49.6
					C222.3,338.7,219.7,341.6,215.5,342.2 M215.6,261.6c-13,1.8-20.1,11.1-20.1,25.7l-0.1,47.8c0,14.6,7.1,21.9,20.1,20.1
					c13-1.8,20.1-11.1,20.2-25.7l0.1-47.8C235.7,267.1,228.6,259.8,215.6,261.6"/>
				<path class="st4" d="M256.6,296.1l0-26l6-0.8c4.7-0.7,6.7,1.9,6.7,8.4l0,7c0,7.3-3,10-8,10.7L256.6,296.1 M263,256.2l-19.6,2.8
					l-0.2,91l13.2-1.9l0.1-39l4.6-0.6c6-0.8,8.3,1.6,8.3,10l0,16.6c0,7.4,0.5,8.8,1.2,11l13.5-1.9c-1.3-3.2-1.4-6.4-1.4-10.8l0-16
					c0-10.3-2.1-16.7-8.8-18l0-0.3c5.9-3.4,8.7-9.8,8.7-19.2l0-5.6C282.7,260.4,276.8,254.3,263,256.2"/>
				<polyline class="st4" points="327.8,247.1 286.9,252.9 286.9,265.9 300.7,263.9 300.6,341.9 313.8,340.1 314,262.1 327.8,260.1 
					327.8,247.1 				"/>
				<path class="st4" d="M340.1,306.2l6-46.7l5.9,45L340.1,306.2 M355.6,243.2l-17.9,2.5l-13.9,92.9l12.3-1.7l2.3-18.1l15.3-2.1
					l2.2,17.5l13.2-1.9L355.6,243.2"/>
				<polyline class="st4" points="429.3,232.9 410.7,235.5 401.7,302.8 393.1,238 374.4,240.6 374.3,331.6 385.8,329.9 385.9,261.1 
					395.7,328.6 406.8,327 416.8,256.7 416.6,325.6 429.2,323.8 429.3,232.9 				"/>
			</g>
		</g>
	</g>
</g>
</svg>
